<svg xmlns="http://www.w3.org/2000/svg" xmlns:xlink="http://www.w3.org/1999/xlink" xmlns:lucid="lucid" width="1151" height="708"><g transform="translate(-209 -220)" lucid:page-tab-id="0_0"><path d="M0 0h1360v1760H0z" fill="#fff"/><path d="M620 520h280v360H620z" stroke="#000" stroke-width="2" fill="#fff"/><path d="M620 558h280" stroke="#000" stroke-width="2" fill="none"/><use xlink:href="#a" transform="matrix(1,0,0,1,628,520) translate(93.07499999999999 22.6)"/><use xlink:href="#b" transform="matrix(1,0,0,1,632,565.6) translate(0 16.70000000000001)"/><use xlink:href="#c" transform="matrix(1,0,0,1,632,565.6) translate(23.95 16.70000000000001)"/><use xlink:href="#d" transform="matrix(1,0,0,1,632,565.6) translate(57.95 16.70000000000001)"/><use xlink:href="#e" transform="matrix(1,0,0,1,632,565.6) translate(0 38.30000000000001)"/><use xlink:href="#f" transform="matrix(1,0,0,1,632,565.6) translate(134.75 38.30000000000001)"/><use xlink:href="#g" transform="matrix(1,0,0,1,632,565.6) translate(0 59.90000000000001)"/><use xlink:href="#f" transform="matrix(1,0,0,1,632,565.6) translate(159.65 59.90000000000001)"/><use xlink:href="#h" transform="matrix(1,0,0,1,632,565.6) translate(0 81.50000000000003)"/><use xlink:href="#f" transform="matrix(1,0,0,1,632,565.6) translate(116.75 81.50000000000003)"/><use xlink:href="#i" transform="matrix(1,0,0,1,632,565.6) translate(0 103.10000000000002)"/><use xlink:href="#f" transform="matrix(1,0,0,1,632,565.6) translate(175.9 103.10000000000002)"/><use xlink:href="#j" transform="matrix(1,0,0,1,632,565.6) translate(0 124.70000000000002)"/><use xlink:href="#f" transform="matrix(1,0,0,1,632,565.6) translate(156.85000000000002 124.70000000000002)"/><use xlink:href="#k" transform="matrix(1,0,0,1,632,565.6) translate(0 146.3)"/><use xlink:href="#f" transform="matrix(1,0,0,1,632,565.6) translate(160.85 146.3)"/><use xlink:href="#l" transform="matrix(1,0,0,1,632,565.6) translate(0 167.9)"/><use xlink:href="#f" transform="matrix(1,0,0,1,632,565.6) translate(138.8 167.9)"/><use xlink:href="#m" transform="matrix(1,0,0,1,632,565.6) translate(0 189.5)"/><use xlink:href="#n" transform="matrix(1,0,0,1,632,565.6) translate(0 211.1)"/><use xlink:href="#o" transform="matrix(1,0,0,1,632,565.6) translate(0 232.7)"/><use xlink:href="#p" transform="matrix(1,0,0,1,632,565.6) translate(95.80000000000001 232.7)"/><use xlink:href="#d" transform="matrix(1,0,0,1,632,565.6) translate(128.75 232.7)"/><use xlink:href="#q" transform="matrix(1,0,0,1,632,565.6) translate(0 254.29999999999998)"/><use xlink:href="#p" transform="matrix(1,0,0,1,632,565.6) translate(95.85000000000001 254.29999999999998)"/><use xlink:href="#d" transform="matrix(1,0,0,1,632,565.6) translate(128.8 254.29999999999998)"/><use xlink:href="#r" transform="matrix(1,0,0,1,632,565.6) translate(0 275.9)"/><use xlink:href="#p" transform="matrix(1,0,0,1,632,565.6) translate(200.6 275.9)"/><use xlink:href="#d" transform="matrix(1,0,0,1,632,565.6) translate(233.55 275.9)"/><use xlink:href="#s" transform="matrix(1,0,0,1,632,565.6) translate(0 297.5)"/><path d="M620 240h240v160H620z" stroke="#000" stroke-width="2" fill="#fff"/><path d="M620 278h240" stroke="#000" stroke-width="2" fill="none"/><use xlink:href="#t" transform="matrix(1,0,0,1,628,240) translate(78.07499999999999 22.6)"/><use xlink:href="#u" transform="matrix(1,0,0,1,632,285.6) translate(0 14.4)"/><use xlink:href="#v" transform="matrix(1,0,0,1,632,285.6) translate(18.95 14.4)"/><use xlink:href="#c" transform="matrix(1,0,0,1,632,285.6) translate(28.95 14.4)"/><use xlink:href="#d" transform="matrix(1,0,0,1,632,285.6) translate(62.95 14.4)"/><use xlink:href="#w" transform="matrix(1,0,0,1,632,285.6) translate(0 36)"/><use xlink:href="#f" transform="matrix(1,0,0,1,632,285.6) translate(126.80000000000001 36)"/><use xlink:href="#n" transform="matrix(1,0,0,1,632,285.6) translate(0 57.6)"/><use xlink:href="#x" transform="matrix(1,0,0,1,632,285.6) translate(0 79.20000000000002)"/><use xlink:href="#p" transform="matrix(1,0,0,1,632,285.6) translate(95.85000000000001 79.20000000000002)"/><use xlink:href="#d" transform="matrix(1,0,0,1,632,285.6) translate(128.8 79.20000000000002)"/><use xlink:href="#s" transform="matrix(1,0,0,1,632,285.6) translate(0 100.80000000000001)"/><path d="M260 240h260v180H260z" stroke="#000" stroke-width="2" fill="#fff"/><path d="M260 278h260" stroke="#000" stroke-width="2" fill="none"/><g><use xlink:href="#y" transform="matrix(1,0,0,1,268,240) translate(87.6 22.6)"/></g><g><use xlink:href="#b" transform="matrix(1,0,0,1,272,285.6) translate(0 14.4)"/><use xlink:href="#c" transform="matrix(1,0,0,1,272,285.6) translate(23.95 14.4)"/><use xlink:href="#d" transform="matrix(1,0,0,1,272,285.6) translate(57.95 14.4)"/><use xlink:href="#z" transform="matrix(1,0,0,1,272,285.6) translate(0 36)"/><use xlink:href="#f" transform="matrix(1,0,0,1,272,285.6) translate(126.85000000000001 36)"/><use xlink:href="#A" transform="matrix(1,0,0,1,272,285.6) translate(0 57.6)"/><use xlink:href="#f" transform="matrix(1,0,0,1,272,285.6) translate(143.8 57.6)"/><use xlink:href="#B" transform="matrix(1,0,0,1,272,285.6) translate(0 79.20000000000002)"/><use xlink:href="#f" transform="matrix(1,0,0,1,272,285.6) translate(115.85000000000001 79.20000000000002)"/><use xlink:href="#C" transform="matrix(1,0,0,1,272,285.6) translate(0 100.80000000000001)"/><use xlink:href="#f" transform="matrix(1,0,0,1,272,285.6) translate(175.75 100.80000000000001)"/><use xlink:href="#n" transform="matrix(1,0,0,1,272,285.6) translate(0 122.4)"/><use xlink:href="#n" transform="matrix(1,0,0,1,272,285.6) translate(0 144)"/><use xlink:href="#s" transform="matrix(1,0,0,1,272,285.6) translate(0 165.6)"/></g><path d="M233.98 292H221v590h357.22v-42.5h2V884H219V290h14.98zm385.24 535H596.7v-2h22.52zM259.28 292h-15.3v-2h15.3zM260 292h-.72v-2h.72zM620 827h-.78v-2h.78z"/><g><use xlink:href="#D" transform="matrix(1,0,0,1,561.7472222222221,817.8853514622883) translate(0 14.4)"/></g><g><use xlink:href="#E" transform="matrix(1,0,0,1,233.98032490911817,280.2) translate(0 14.4)"/></g><path d="M602.2 301.67h-21.98v496.2h-1.96v11.8h-.04v-510h23.98zm17.02 506v2h-6v-2zm.1-506h-7.12v-2h7.13zM620 301.67h-.67v-2h.67zM620 809.67h-.78v-2h.78z"/><g><use xlink:href="#D" transform="matrix(1,0,0,1,578.2636188271604,797.8666666666667) translate(0 14.4)"/></g><g><use xlink:href="#E" transform="matrix(1,0,0,1,602.2016194505838,289.8666666666666) translate(0 14.4)"/></g><path d="M1060 760h240v140h-240z" stroke="#000" stroke-width="2" fill="#fff"/><path d="M1060 798h240" stroke="#000" stroke-width="2" fill="none"/><g><use xlink:href="#F" transform="matrix(1,0,0,1,1068,760) translate(19.700000000000017 22.6)"/></g><g><use xlink:href="#b" transform="matrix(1,0,0,1,1072,805.6) translate(0 14.4)"/><use xlink:href="#c" transform="matrix(1,0,0,1,1072,805.6) translate(23.95 14.4)"/><use xlink:href="#d" transform="matrix(1,0,0,1,1072,805.6) translate(57.95 14.4)"/><use xlink:href="#G" transform="matrix(1,0,0,1,1072,805.6) translate(0 36)"/><use xlink:href="#f" transform="matrix(1,0,0,1,1072,805.6) translate(96.85000000000001 36)"/><use xlink:href="#H" transform="matrix(1,0,0,1,1072,805.6) translate(0 57.6)"/><use xlink:href="#I" transform="matrix(1,0,0,1,1072,805.6) translate(72.80000000000001 57.6)"/><use xlink:href="#n" transform="matrix(1,0,0,1,1072,805.6) translate(0 79.20000000000002)"/><use xlink:href="#s" transform="matrix(1,0,0,1,1072,805.6) translate(0 100.80000000000001)"/></g><path d="M901 837.68h79v-36.26h79" stroke="#000" stroke-width="2" fill="none"/><path d="M901 838.68h-1v-2h1zM1060 802.42h-1v-2h1z"/><g><use xlink:href="#E" transform="matrix(1,0,0,1,1050,775.8166666666668) translate(0 14.4)"/></g><g><use xlink:href="#E" transform="matrix(1,0,0,1,901,812.0842105263158) translate(0 14.4)"/></g><path d="M1060 240h280v180h-280z" stroke="#000" stroke-width="2" fill="#fff"/><path d="M1060 278h280" stroke="#000" stroke-width="2" fill="none"/><g><use xlink:href="#J" transform="matrix(1,0,0,1,1068,240) translate(97.125 22.6)"/></g><g><use xlink:href="#b" transform="matrix(1,0,0,1,1072,285.6) translate(0 14.4)"/><use xlink:href="#c" transform="matrix(1,0,0,1,1072,285.6) translate(23.95 14.4)"/><use xlink:href="#d" transform="matrix(1,0,0,1,1072,285.6) translate(57.95 14.4)"/><use xlink:href="#K" transform="matrix(1,0,0,1,1072,285.6) translate(0 36)"/><use xlink:href="#L" transform="matrix(1,0,0,1,1072,285.6) translate(0 57.6)"/><use xlink:href="#M" transform="matrix(1,0,0,1,1072,285.6) translate(187.7 57.6)"/><use xlink:href="#N" transform="matrix(1,0,0,1,1072,285.6) translate(0 79.20000000000002)"/><use xlink:href="#d" transform="matrix(1,0,0,1,1072,285.6) translate(115.85000000000001 79.20000000000002)"/><use xlink:href="#O" transform="matrix(1,0,0,1,1072,285.6) translate(0 100.80000000000001)"/><use xlink:href="#d" transform="matrix(1,0,0,1,1072,285.6) translate(100.85000000000001 100.80000000000001)"/><use xlink:href="#n" transform="matrix(1,0,0,1,1072,285.6) translate(0 122.4)"/><use xlink:href="#s" transform="matrix(1,0,0,1,1072,285.6) translate(0 144)"/></g><path d="M1059.22 288h-99.28v68.1h-99.27" stroke="#000" stroke-width="2" fill="none"/><path d="M1060 289h-.78v-2h.78zM860.67 357.1H860v-2h.67z"/><g><use xlink:href="#D" transform="matrix(1,0,0,1,1024.7472222222223,262.4) translate(0 14.4)"/></g><g><use xlink:href="#E" transform="matrix(1,0,0,1,860.6666666666667,360.1025641025641) translate(0 14.4)"/></g><defs><path d="M231 0h-52l-39-155L100 0H48L-1-190h46L77-45c9-52 24-97 36-145h53l37 145 32-145h46" id="P"/><path d="M110-194c64 0 96 36 96 99 0 64-35 99-97 99-61 0-95-36-95-99 0-62 34-99 96-99zm-1 164c35 0 45-28 45-65 0-40-10-65-43-65-34 0-45 26-45 65 0 36 10 65 43 65" id="Q"/><path d="M135-150c-39-12-60 13-60 57V0H25l-1-190h47c2 13-1 29 3 40 6-28 27-53 61-41v41" id="R"/><path d="M147 0L96-86 75-71V0H25v-261h50v150l67-79h53l-66 74L201 0h-54" id="S"/><path d="M121-226c-27-7-43 5-38 36h38v33H83V0H34v-157H6v-33h28c-9-59 32-81 87-68v32" id="T"/><path d="M25 0v-261h50V0H25" id="U"/><g id="a"><use transform="matrix(0.05,0,0,0.05,0,0)" xlink:href="#P"/><use transform="matrix(0.05,0,0,0.05,14,0)" xlink:href="#Q"/><use transform="matrix(0.05,0,0,0.05,24.950000000000003,0)" xlink:href="#R"/><use transform="matrix(0.05,0,0,0.05,31.950000000000003,0)" xlink:href="#S"/><use transform="matrix(0.05,0,0,0.05,41.95,0)" xlink:href="#T"/><use transform="matrix(0.05,0,0,0.05,47.900000000000006,0)" xlink:href="#U"/><use transform="matrix(0.05,0,0,0.05,52.900000000000006,0)" xlink:href="#Q"/><use transform="matrix(0.05,0,0,0.05,63.85,0)" xlink:href="#P"/></g><path d="M24-231v-30h32v30H24zM24 0v-190h32V0H24" id="V"/><path d="M85-194c31 0 48 13 60 33l-1-100h32l1 261h-30c-2-10 0-23-3-31C134-8 116 4 85 4 32 4 16-35 15-94c0-66 23-100 70-100zm9 24c-40 0-46 34-46 75 0 40 6 74 45 74 42 0 51-32 51-76 0-42-9-74-50-73" id="W"/><path d="M33-154v-36h34v36H33zM33 0v-36h34V0H33" id="X"/><g id="b"><use transform="matrix(0.05,0,0,0.05,0,0)" xlink:href="#V"/><use transform="matrix(0.05,0,0,0.05,3.95,0)" xlink:href="#W"/><use transform="matrix(0.05,0,0,0.05,13.949999999999998,0)" xlink:href="#X"/></g><path d="M30-248c87 1 191-15 191 75 0 78-77 80-158 76V0H30v-248zm33 125c57 0 124 11 124-50 0-59-68-47-124-48v98" id="Y"/><path d="M194 0L95-120 63-95V0H30v-248h33v124l119-124h40L117-140 236 0h-42" id="Z"/><g id="c"><use transform="matrix(0.05,0,0,0.05,0,0)" xlink:href="#Y"/><use transform="matrix(0.05,0,0,0.05,12,0)" xlink:href="#Z"/><use transform="matrix(0.05,0,0,0.05,24,0)" xlink:href="#X"/></g><path d="M117-194c89-4 53 116 60 194h-32v-121c0-31-8-49-39-48C34-167 62-67 57 0H25l-1-190h30c1 10-1 24 2 32 11-22 29-35 61-36" id="aa"/><path d="M59-47c-2 24 18 29 38 22v24C64 9 27 4 27-40v-127H5v-23h24l9-43h21v43h35v23H59v120" id="ab"/><g id="d"><use transform="matrix(0.05,0,0,0.05,0,0)" xlink:href="#V"/><use transform="matrix(0.05,0,0,0.05,3.95,0)" xlink:href="#aa"/><use transform="matrix(0.05,0,0,0.05,13.949999999999998,0)" xlink:href="#ab"/></g><path d="M206 0h-36l-40-164L89 0H53L-1-190h32L70-26l43-164h34l41 164 42-164h31" id="ac"/><path d="M100-194c62-1 85 37 85 99 1 63-27 99-86 99S16-35 15-95c0-66 28-99 85-99zM99-20c44 1 53-31 53-75 0-43-8-75-51-75s-53 32-53 75 10 74 51 75" id="ad"/><path d="M114-163C36-179 61-72 57 0H25l-1-190h30c1 12-1 29 2 39 6-27 23-49 58-41v29" id="ae"/><path d="M143 0L79-87 56-68V0H24v-261h32v163l83-92h37l-77 82L181 0h-38" id="af"/><path d="M101-234c-31-9-42 10-38 44h38v23H63V0H32v-167H5v-23h27c-7-52 17-82 69-68v24" id="ag"/><path d="M24 0v-261h32V0H24" id="ah"/><path d="M-5 72V49h209v23H-5" id="ai"/><path d="M141-36C126-15 110 5 73 4 37 3 15-17 15-53c-1-64 63-63 125-63 3-35-9-54-41-54-24 1-41 7-42 31l-33-3c5-37 33-52 76-52 45 0 72 20 72 64v82c-1 20 7 32 28 27v20c-31 9-61-2-59-35zM48-53c0 20 12 33 32 33 41-3 63-29 60-74-43 2-92-5-92 41" id="aj"/><path d="M210-169c-67 3-38 105-44 169h-31v-121c0-29-5-50-35-48C34-165 62-65 56 0H25l-1-190h30c1 10-1 24 2 32 10-44 99-50 107 0 11-21 27-35 58-36 85-2 47 119 55 194h-31v-121c0-29-5-49-35-48" id="ak"/><path d="M100-194c63 0 86 42 84 106H49c0 40 14 67 53 68 26 1 43-12 49-29l28 8c-11 28-37 45-77 45C44 4 14-33 15-96c1-61 26-98 85-98zm52 81c6-60-76-77-97-28-3 7-6 17-6 28h103" id="al"/><g id="e"><use transform="matrix(0.05,0,0,0.05,0,0)" xlink:href="#ac"/><use transform="matrix(0.05,0,0,0.05,12.950000000000001,0)" xlink:href="#ad"/><use transform="matrix(0.05,0,0,0.05,22.950000000000003,0)" xlink:href="#ae"/><use transform="matrix(0.05,0,0,0.05,28.900000000000002,0)" xlink:href="#af"/><use transform="matrix(0.05,0,0,0.05,37.900000000000006,0)" xlink:href="#ag"/><use transform="matrix(0.05,0,0,0.05,42.900000000000006,0)" xlink:href="#ah"/><use transform="matrix(0.05,0,0,0.05,46.85000000000001,0)" xlink:href="#ad"/><use transform="matrix(0.05,0,0,0.05,56.85,0)" xlink:href="#ac"/><use transform="matrix(0.05,0,0,0.05,69.80000000000001,0)" xlink:href="#ai"/><use transform="matrix(0.05,0,0,0.05,79.80000000000001,0)" xlink:href="#aa"/><use transform="matrix(0.05,0,0,0.05,89.80000000000001,0)" xlink:href="#aj"/><use transform="matrix(0.05,0,0,0.05,99.80000000000001,0)" xlink:href="#ak"/><use transform="matrix(0.05,0,0,0.05,114.75,0)" xlink:href="#al"/><use transform="matrix(0.05,0,0,0.05,124.75,0)" xlink:href="#X"/></g><path d="M185-189c-5-48-123-54-124 2 14 75 158 14 163 119 3 78-121 87-175 55-17-10-28-26-33-46l33-7c5 56 141 63 141-1 0-78-155-14-162-118-5-82 145-84 179-34 5 7 8 16 11 25" id="am"/><path d="M177-190C167-65 218 103 67 71c-23-6-38-20-44-43l32-5c15 47 100 32 89-28v-30C133-14 115 1 83 1 29 1 15-40 15-95c0-56 16-97 71-98 29-1 48 16 59 35 1-10 0-23 2-32h30zM94-22c36 0 50-32 50-73 0-42-14-75-50-75-39 0-46 34-46 75s6 73 46 73" id="an"/><g id="f"><use transform="matrix(0.05,0,0,0.05,0,0)" xlink:href="#am"/><use transform="matrix(0.05,0,0,0.05,12,0)" xlink:href="#ab"/><use transform="matrix(0.05,0,0,0.05,17,0)" xlink:href="#ae"/><use transform="matrix(0.05,0,0,0.05,22.95,0)" xlink:href="#V"/><use transform="matrix(0.05,0,0,0.05,26.899999999999995,0)" xlink:href="#aa"/><use transform="matrix(0.05,0,0,0.05,36.9,0)" xlink:href="#an"/></g><path d="M115-194c53 0 69 39 70 98 0 66-23 100-70 100C84 3 66-7 56-30L54 0H23l1-261h32v101c10-23 28-34 59-34zm-8 174c40 0 45-34 45-75 0-40-5-75-45-74-42 0-51 32-51 76 0 43 10 73 51 73" id="ao"/><path d="M179-190L93 31C79 59 56 82 12 73V49c39 6 53-20 64-50L1-190h34L92-34l54-156h33" id="ap"/><path d="M115-194c55 1 70 41 70 98S169 2 115 4C84 4 66-9 55-30l1 105H24l-1-265h31l2 30c10-21 28-34 59-34zm-8 174c40 0 45-34 45-75s-6-73-45-74c-42 0-51 32-51 76 0 43 10 73 51 73" id="aq"/><g id="g"><use transform="matrix(0.05,0,0,0.05,0,0)" xlink:href="#ah"/><use transform="matrix(0.05,0,0,0.05,3.95,0)" xlink:href="#V"/><use transform="matrix(0.05,0,0,0.05,7.9,0)" xlink:href="#ao"/><use transform="matrix(0.05,0,0,0.05,17.9,0)" xlink:href="#ae"/><use transform="matrix(0.05,0,0,0.05,23.849999999999998,0)" xlink:href="#aj"/><use transform="matrix(0.05,0,0,0.05,33.849999999999994,0)" xlink:href="#ae"/><use transform="matrix(0.05,0,0,0.05,39.8,0)" xlink:href="#ap"/><use transform="matrix(0.05,0,0,0.05,48.8,0)" xlink:href="#ai"/><use transform="matrix(0.05,0,0,0.05,58.79999999999999,0)" xlink:href="#aq"/><use transform="matrix(0.05,0,0,0.05,68.8,0)" xlink:href="#ae"/><use transform="matrix(0.05,0,0,0.05,74.75,0)" xlink:href="#al"/><use transform="matrix(0.05,0,0,0.05,84.75,0)" xlink:href="#aq"/><use transform="matrix(0.05,0,0,0.05,94.75,0)" xlink:href="#aj"/><use transform="matrix(0.05,0,0,0.05,104.75,0)" xlink:href="#ae"/><use transform="matrix(0.05,0,0,0.05,110.7,0)" xlink:href="#aj"/><use transform="matrix(0.05,0,0,0.05,120.7,0)" xlink:href="#ab"/><use transform="matrix(0.05,0,0,0.05,125.7,0)" xlink:href="#V"/><use transform="matrix(0.05,0,0,0.05,129.65,0)" xlink:href="#ad"/><use transform="matrix(0.05,0,0,0.05,139.65,0)" xlink:href="#aa"/><use transform="matrix(0.05,0,0,0.05,149.65,0)" xlink:href="#X"/></g><path d="M84 4C-5 8 30-112 23-190h32v120c0 31 7 50 39 49 72-2 45-101 50-169h31l1 190h-30c-1-10 1-25-2-33-11 22-28 36-60 37" id="ar"/><g id="h"><use transform="matrix(0.05,0,0,0.05,0,0)" xlink:href="#ah"/><use transform="matrix(0.05,0,0,0.05,3.95,0)" xlink:href="#V"/><use transform="matrix(0.05,0,0,0.05,7.9,0)" xlink:href="#ao"/><use transform="matrix(0.05,0,0,0.05,17.9,0)" xlink:href="#ae"/><use transform="matrix(0.05,0,0,0.05,23.849999999999998,0)" xlink:href="#aj"/><use transform="matrix(0.05,0,0,0.05,33.849999999999994,0)" xlink:href="#ae"/><use transform="matrix(0.05,0,0,0.05,39.8,0)" xlink:href="#ap"/><use transform="matrix(0.05,0,0,0.05,48.8,0)" xlink:href="#ai"/><use transform="matrix(0.05,0,0,0.05,58.79999999999999,0)" xlink:href="#ah"/><use transform="matrix(0.05,0,0,0.05,62.75,0)" xlink:href="#aj"/><use transform="matrix(0.05,0,0,0.05,72.75,0)" xlink:href="#ap"/><use transform="matrix(0.05,0,0,0.05,81.75,0)" xlink:href="#ad"/><use transform="matrix(0.05,0,0,0.05,91.75,0)" xlink:href="#ar"/><use transform="matrix(0.05,0,0,0.05,101.75,0)" xlink:href="#ab"/><use transform="matrix(0.05,0,0,0.05,106.75,0)" xlink:href="#X"/></g><path d="M135-143c-3-34-86-38-87 0 15 53 115 12 119 90S17 21 10-45l28-5c4 36 97 45 98 0-10-56-113-15-118-90-4-57 82-63 122-42 12 7 21 19 24 35" id="as"/><path d="M145-31C134-9 116 4 85 4 32 4 16-35 15-94c0-59 17-99 70-100 32-1 48 14 60 33 0-11-1-24 2-32h30l-1 268h-32zM93-21c41 0 51-33 51-76s-8-73-50-73c-40 0-46 35-46 75s5 74 45 74" id="at"/><path d="M96-169c-40 0-48 33-48 73s9 75 48 75c24 0 41-14 43-38l32 2c-6 37-31 61-74 61-59 0-76-41-82-99-10-93 101-131 147-64 4 7 5 14 7 22l-32 3c-4-21-16-35-41-35" id="au"/><g id="i"><use transform="matrix(0.05,0,0,0.05,0,0)" xlink:href="#as"/><use transform="matrix(0.05,0,0,0.05,9,0)" xlink:href="#al"/><use transform="matrix(0.05,0,0,0.05,19,0)" xlink:href="#at"/><use transform="matrix(0.05,0,0,0.05,29,0)" xlink:href="#ar"/><use transform="matrix(0.05,0,0,0.05,39,0)" xlink:href="#al"/><use transform="matrix(0.05,0,0,0.05,49,0)" xlink:href="#aa"/><use transform="matrix(0.05,0,0,0.05,59,0)" xlink:href="#au"/><use transform="matrix(0.05,0,0,0.05,68,0)" xlink:href="#V"/><use transform="matrix(0.05,0,0,0.05,71.95,0)" xlink:href="#aa"/><use transform="matrix(0.05,0,0,0.05,81.95,0)" xlink:href="#an"/><use transform="matrix(0.05,0,0,0.05,91.95,0)" xlink:href="#ai"/><use transform="matrix(0.05,0,0,0.05,101.95,0)" xlink:href="#as"/><use transform="matrix(0.05,0,0,0.05,110.95,0)" xlink:href="#ab"/><use transform="matrix(0.05,0,0,0.05,115.95,0)" xlink:href="#ae"/><use transform="matrix(0.05,0,0,0.05,121.9,0)" xlink:href="#aj"/><use transform="matrix(0.05,0,0,0.05,131.9,0)" xlink:href="#ab"/><use transform="matrix(0.05,0,0,0.05,136.9,0)" xlink:href="#al"/><use transform="matrix(0.05,0,0,0.05,146.9,0)" xlink:href="#an"/><use transform="matrix(0.05,0,0,0.05,156.9,0)" xlink:href="#ap"/><use transform="matrix(0.05,0,0,0.05,165.9,0)" xlink:href="#X"/></g><g id="j"><use transform="matrix(0.05,0,0,0.05,0,0)" xlink:href="#aa"/><use transform="matrix(0.05,0,0,0.05,10,0)" xlink:href="#aj"/><use transform="matrix(0.05,0,0,0.05,20,0)" xlink:href="#ab"/><use transform="matrix(0.05,0,0,0.05,25,0)" xlink:href="#aj"/><use transform="matrix(0.05,0,0,0.05,35,0)" xlink:href="#ai"/><use transform="matrix(0.05,0,0,0.05,45,0)" xlink:href="#aj"/><use transform="matrix(0.05,0,0,0.05,55,0)" xlink:href="#au"/><use transform="matrix(0.05,0,0,0.05,64,0)" xlink:href="#au"/><use transform="matrix(0.05,0,0,0.05,73,0)" xlink:href="#ae"/><use transform="matrix(0.05,0,0,0.05,78.95,0)" xlink:href="#al"/><use transform="matrix(0.05,0,0,0.05,88.95,0)" xlink:href="#W"/><use transform="matrix(0.05,0,0,0.05,98.95,0)" xlink:href="#V"/><use transform="matrix(0.05,0,0,0.05,102.9,0)" xlink:href="#ab"/><use transform="matrix(0.05,0,0,0.05,107.9,0)" xlink:href="#aj"/><use transform="matrix(0.05,0,0,0.05,117.9,0)" xlink:href="#ab"/><use transform="matrix(0.05,0,0,0.05,122.9,0)" xlink:href="#V"/><use transform="matrix(0.05,0,0,0.05,126.85000000000001,0)" xlink:href="#ad"/><use transform="matrix(0.05,0,0,0.05,136.85000000000002,0)" xlink:href="#aa"/><use transform="matrix(0.05,0,0,0.05,146.85000000000002,0)" xlink:href="#X"/></g><g id="k"><use transform="matrix(0.05,0,0,0.05,0,0)" xlink:href="#ae"/><use transform="matrix(0.05,0,0,0.05,5.95,0)" xlink:href="#al"/><use transform="matrix(0.05,0,0,0.05,15.949999999999998,0)" xlink:href="#ag"/><use transform="matrix(0.05,0,0,0.05,20.95,0)" xlink:href="#al"/><use transform="matrix(0.05,0,0,0.05,30.950000000000003,0)" xlink:href="#ae"/><use transform="matrix(0.05,0,0,0.05,36.9,0)" xlink:href="#al"/><use transform="matrix(0.05,0,0,0.05,46.9,0)" xlink:href="#aa"/><use transform="matrix(0.05,0,0,0.05,56.900000000000006,0)" xlink:href="#au"/><use transform="matrix(0.05,0,0,0.05,65.9,0)" xlink:href="#al"/><use transform="matrix(0.05,0,0,0.05,75.9,0)" xlink:href="#ai"/><use transform="matrix(0.05,0,0,0.05,85.9,0)" xlink:href="#an"/><use transform="matrix(0.05,0,0,0.05,95.9,0)" xlink:href="#al"/><use transform="matrix(0.05,0,0,0.05,105.9,0)" xlink:href="#aa"/><use transform="matrix(0.05,0,0,0.05,115.9,0)" xlink:href="#ad"/><use transform="matrix(0.05,0,0,0.05,125.9,0)" xlink:href="#ak"/><use transform="matrix(0.05,0,0,0.05,140.85,0)" xlink:href="#al"/><use transform="matrix(0.05,0,0,0.05,150.85,0)" xlink:href="#X"/></g><g id="l"><use transform="matrix(0.05,0,0,0.05,0,0)" xlink:href="#ac"/><use transform="matrix(0.05,0,0,0.05,12.950000000000001,0)" xlink:href="#ad"/><use transform="matrix(0.05,0,0,0.05,22.950000000000003,0)" xlink:href="#ae"/><use transform="matrix(0.05,0,0,0.05,28.900000000000002,0)" xlink:href="#af"/><use transform="matrix(0.05,0,0,0.05,37.900000000000006,0)" xlink:href="#ag"/><use transform="matrix(0.05,0,0,0.05,42.900000000000006,0)" xlink:href="#ah"/><use transform="matrix(0.05,0,0,0.05,46.85000000000001,0)" xlink:href="#ad"/><use transform="matrix(0.05,0,0,0.05,56.85,0)" xlink:href="#ac"/><use transform="matrix(0.05,0,0,0.05,69.80000000000001,0)" xlink:href="#ai"/><use transform="matrix(0.05,0,0,0.05,79.80000000000001,0)" xlink:href="#ar"/><use transform="matrix(0.05,0,0,0.05,89.80000000000001,0)" xlink:href="#as"/><use transform="matrix(0.05,0,0,0.05,98.80000000000001,0)" xlink:href="#aj"/><use transform="matrix(0.05,0,0,0.05,108.80000000000001,0)" xlink:href="#an"/><use transform="matrix(0.05,0,0,0.05,118.80000000000001,0)" xlink:href="#al"/><use transform="matrix(0.05,0,0,0.05,128.8,0)" xlink:href="#X"/></g><g id="m"><use transform="matrix(0.05,0,0,0.05,0,0)" xlink:href="#ac"/><use transform="matrix(0.05,0,0,0.05,12.950000000000001,0)" xlink:href="#ad"/><use transform="matrix(0.05,0,0,0.05,22.950000000000003,0)" xlink:href="#ae"/><use transform="matrix(0.05,0,0,0.05,28.900000000000002,0)" xlink:href="#af"/><use transform="matrix(0.05,0,0,0.05,37.900000000000006,0)" xlink:href="#ag"/><use transform="matrix(0.05,0,0,0.05,42.900000000000006,0)" xlink:href="#ah"/><use transform="matrix(0.05,0,0,0.05,46.85000000000001,0)" xlink:href="#ad"/><use transform="matrix(0.05,0,0,0.05,56.85,0)" xlink:href="#ac"/><use transform="matrix(0.05,0,0,0.05,69.80000000000001,0)" xlink:href="#ai"/><use transform="matrix(0.05,0,0,0.05,79.80000000000001,0)" xlink:href="#aj"/><use transform="matrix(0.05,0,0,0.05,89.80000000000001,0)" xlink:href="#au"/><use transform="matrix(0.05,0,0,0.05,98.80000000000001,0)" xlink:href="#au"/><use transform="matrix(0.05,0,0,0.05,107.80000000000001,0)" xlink:href="#al"/><use transform="matrix(0.05,0,0,0.05,117.80000000000001,0)" xlink:href="#as"/><use transform="matrix(0.05,0,0,0.05,126.80000000000001,0)" xlink:href="#as"/><use transform="matrix(0.05,0,0,0.05,135.8,0)" xlink:href="#V"/><use transform="matrix(0.05,0,0,0.05,139.75,0)" xlink:href="#ad"/><use transform="matrix(0.05,0,0,0.05,149.75,0)" xlink:href="#aa"/><use transform="matrix(0.05,0,0,0.05,159.75,0)" xlink:href="#X"/></g><g id="o"><use transform="matrix(0.05,0,0,0.05,0,0)" xlink:href="#aq"/><use transform="matrix(0.05,0,0,0.05,10,0)" xlink:href="#V"/><use transform="matrix(0.05,0,0,0.05,13.949999999999998,0)" xlink:href="#aq"/><use transform="matrix(0.05,0,0,0.05,23.95,0)" xlink:href="#al"/><use transform="matrix(0.05,0,0,0.05,33.95,0)" xlink:href="#ah"/><use transform="matrix(0.05,0,0,0.05,37.900000000000006,0)" xlink:href="#V"/><use transform="matrix(0.05,0,0,0.05,41.85000000000001,0)" xlink:href="#aa"/><use transform="matrix(0.05,0,0,0.05,51.85,0)" xlink:href="#al"/><use transform="matrix(0.05,0,0,0.05,61.85,0)" xlink:href="#ai"/><use transform="matrix(0.05,0,0,0.05,71.85000000000001,0)" xlink:href="#V"/><use transform="matrix(0.05,0,0,0.05,75.80000000000001,0)" xlink:href="#W"/><use transform="matrix(0.05,0,0,0.05,85.80000000000001,0)" xlink:href="#X"/></g><path d="M63-220v92h138v28H63V0H30v-248h175v28H63" id="av"/><g id="p"><use transform="matrix(0.05,0,0,0.05,0,0)" xlink:href="#av"/><use transform="matrix(0.05,0,0,0.05,10.950000000000001,0)" xlink:href="#Z"/><use transform="matrix(0.05,0,0,0.05,22.950000000000003,0)" xlink:href="#X"/></g><path d="M106-169C34-169 62-67 57 0H25v-261h32l-1 103c12-21 28-36 61-36 89 0 53 116 60 194h-32v-121c2-32-8-49-39-48" id="aw"/><g id="q"><use transform="matrix(0.05,0,0,0.05,0,0)" xlink:href="#ag"/><use transform="matrix(0.05,0,0,0.05,5,0)" xlink:href="#ah"/><use transform="matrix(0.05,0,0,0.05,8.95,0)" xlink:href="#aj"/><use transform="matrix(0.05,0,0,0.05,18.95,0)" xlink:href="#an"/><use transform="matrix(0.05,0,0,0.05,28.950000000000003,0)" xlink:href="#as"/><use transform="matrix(0.05,0,0,0.05,37.95,0)" xlink:href="#aw"/><use transform="matrix(0.05,0,0,0.05,47.95,0)" xlink:href="#V"/><use transform="matrix(0.05,0,0,0.05,51.900000000000006,0)" xlink:href="#aq"/><use transform="matrix(0.05,0,0,0.05,61.900000000000006,0)" xlink:href="#ai"/><use transform="matrix(0.05,0,0,0.05,71.9,0)" xlink:href="#V"/><use transform="matrix(0.05,0,0,0.05,75.85000000000001,0)" xlink:href="#W"/><use transform="matrix(0.05,0,0,0.05,85.85000000000001,0)" xlink:href="#X"/></g><g id="r"><use transform="matrix(0.05,0,0,0.05,0,0)" xlink:href="#ac"/><use transform="matrix(0.05,0,0,0.05,12.950000000000001,0)" xlink:href="#ad"/><use transform="matrix(0.05,0,0,0.05,22.950000000000003,0)" xlink:href="#ae"/><use transform="matrix(0.05,0,0,0.05,28.900000000000002,0)" xlink:href="#af"/><use transform="matrix(0.05,0,0,0.05,37.900000000000006,0)" xlink:href="#ag"/><use transform="matrix(0.05,0,0,0.05,42.900000000000006,0)" xlink:href="#ah"/><use transform="matrix(0.05,0,0,0.05,46.85000000000001,0)" xlink:href="#ad"/><use transform="matrix(0.05,0,0,0.05,56.85,0)" xlink:href="#ac"/><use transform="matrix(0.05,0,0,0.05,69.80000000000001,0)" xlink:href="#ai"/><use transform="matrix(0.05,0,0,0.05,79.80000000000001,0)" xlink:href="#W"/><use transform="matrix(0.05,0,0,0.05,89.80000000000001,0)" xlink:href="#al"/><use transform="matrix(0.05,0,0,0.05,99.80000000000001,0)" xlink:href="#as"/><use transform="matrix(0.05,0,0,0.05,108.80000000000001,0)" xlink:href="#au"/><use transform="matrix(0.05,0,0,0.05,117.80000000000001,0)" xlink:href="#ae"/><use transform="matrix(0.05,0,0,0.05,123.75,0)" xlink:href="#V"/><use transform="matrix(0.05,0,0,0.05,127.7,0)" xlink:href="#aq"/><use transform="matrix(0.05,0,0,0.05,137.70000000000002,0)" xlink:href="#ab"/><use transform="matrix(0.05,0,0,0.05,142.70000000000002,0)" xlink:href="#V"/><use transform="matrix(0.05,0,0,0.05,146.65,0)" xlink:href="#ad"/><use transform="matrix(0.05,0,0,0.05,156.65,0)" xlink:href="#aa"/><use transform="matrix(0.05,0,0,0.05,166.65,0)" xlink:href="#ai"/><use transform="matrix(0.05,0,0,0.05,176.65,0)" xlink:href="#V"/><use transform="matrix(0.05,0,0,0.05,180.6,0)" xlink:href="#W"/><use transform="matrix(0.05,0,0,0.05,190.6,0)" xlink:href="#X"/></g><path d="M135-194c53 0 70 44 70 98 0 56-19 98-73 100-31 1-45-17-59-34 3 33 2 69 2 105H25l-1-265h48c2 10 0 23 3 31 11-24 29-35 60-35zM114-30c33 0 39-31 40-66 0-38-9-64-40-64-56 0-55 130 0 130" id="ax"/><path d="M25-224v-37h50v37H25zM25 0v-190h50V0H25" id="ay"/><path d="M185-48c-13 30-37 53-82 52C43 2 14-33 14-96s30-98 90-98c62 0 83 45 84 108H66c0 31 8 55 39 56 18 0 30-7 34-22zm-45-69c5-46-57-63-70-21-2 6-4 13-4 21h74" id="az"/><path d="M135-194c87-1 58 113 63 194h-50c-7-57 23-157-34-157-59 0-34 97-39 157H25l-1-190h47c2 12-1 28 3 38 12-26 28-41 61-42" id="aA"/><g id="t"><use transform="matrix(0.05,0,0,0.05,0,0)" xlink:href="#ax"/><use transform="matrix(0.05,0,0,0.05,10.950000000000001,0)" xlink:href="#ay"/><use transform="matrix(0.05,0,0,0.05,15.950000000000001,0)" xlink:href="#ax"/><use transform="matrix(0.05,0,0,0.05,26.900000000000002,0)" xlink:href="#az"/><use transform="matrix(0.05,0,0,0.05,36.900000000000006,0)" xlink:href="#U"/><use transform="matrix(0.05,0,0,0.05,41.900000000000006,0)" xlink:href="#ay"/><use transform="matrix(0.05,0,0,0.05,46.900000000000006,0)" xlink:href="#aA"/><use transform="matrix(0.05,0,0,0.05,57.85,0)" xlink:href="#az"/></g><g id="u"><use transform="matrix(0.05,0,0,0.05,0,0)" xlink:href="#V"/><use transform="matrix(0.05,0,0,0.05,3.95,0)" xlink:href="#W"/></g><use transform="matrix(0.05,0,0,0.05,0,0)" xlink:href="#X" id="v"/><g id="w"><use transform="matrix(0.05,0,0,0.05,0,0)" xlink:href="#aq"/><use transform="matrix(0.05,0,0,0.05,10,0)" xlink:href="#V"/><use transform="matrix(0.05,0,0,0.05,13.949999999999998,0)" xlink:href="#aq"/><use transform="matrix(0.05,0,0,0.05,23.95,0)" xlink:href="#al"/><use transform="matrix(0.05,0,0,0.05,33.95,0)" xlink:href="#ah"/><use transform="matrix(0.05,0,0,0.05,37.900000000000006,0)" xlink:href="#V"/><use transform="matrix(0.05,0,0,0.05,41.85000000000001,0)" xlink:href="#aa"/><use transform="matrix(0.05,0,0,0.05,51.85,0)" xlink:href="#al"/><use transform="matrix(0.05,0,0,0.05,61.85,0)" xlink:href="#ai"/><use transform="matrix(0.05,0,0,0.05,71.85000000000001,0)" xlink:href="#aa"/><use transform="matrix(0.05,0,0,0.05,81.85000000000001,0)" xlink:href="#aj"/><use transform="matrix(0.05,0,0,0.05,91.85000000000001,0)" xlink:href="#ak"/><use transform="matrix(0.05,0,0,0.05,106.80000000000001,0)" xlink:href="#al"/><use transform="matrix(0.05,0,0,0.05,116.80000000000001,0)" xlink:href="#X"/></g><g id="x"><use transform="matrix(0.05,0,0,0.05,0,0)" xlink:href="#V"/><use transform="matrix(0.05,0,0,0.05,3.95,0)" xlink:href="#aa"/><use transform="matrix(0.05,0,0,0.05,13.949999999999998,0)" xlink:href="#as"/><use transform="matrix(0.05,0,0,0.05,22.95,0)" xlink:href="#ab"/><use transform="matrix(0.05,0,0,0.05,27.950000000000003,0)" xlink:href="#V"/><use transform="matrix(0.05,0,0,0.05,31.899999999999995,0)" xlink:href="#ab"/><use transform="matrix(0.05,0,0,0.05,36.9,0)" xlink:href="#ar"/><use transform="matrix(0.05,0,0,0.05,46.9,0)" xlink:href="#ab"/><use transform="matrix(0.05,0,0,0.05,51.900000000000006,0)" xlink:href="#al"/><use transform="matrix(0.05,0,0,0.05,61.900000000000006,0)" xlink:href="#ai"/><use transform="matrix(0.05,0,0,0.05,71.9,0)" xlink:href="#V"/><use transform="matrix(0.05,0,0,0.05,75.85000000000001,0)" xlink:href="#W"/><use transform="matrix(0.05,0,0,0.05,85.85000000000001,0)" xlink:href="#X"/></g><path d="M133-34C117-15 103 5 69 4 32 3 11-16 11-54c-1-60 55-63 116-61 1-26-3-47-28-47-18 1-26 9-28 27l-52-2c7-38 36-58 82-57s74 22 75 68l1 82c-1 14 12 18 25 15v27c-30 8-71 5-69-32zm-48 3c29 0 43-24 42-57-32 0-66-3-65 30 0 17 8 27 23 27" id="aB"/><path d="M195-6C206 82 75 100 31 46c-4-6-6-13-8-21l49-6c3 16 16 24 34 25 40 0 42-37 40-79-11 22-30 35-61 35-53 0-70-43-70-97 0-56 18-96 73-97 30 0 46 14 59 34l2-30h47zm-90-29c32 0 41-27 41-63 0-35-9-62-40-62-32 0-39 29-40 63 0 36 9 62 39 62" id="aC"/><path d="M137-138c1-29-70-34-71-4 15 46 118 7 119 86 1 83-164 76-172 9l43-7c4 19 20 25 44 25 33 8 57-30 24-41C81-84 22-81 20-136c-2-80 154-74 161-7" id="aD"/><path d="M114-157C55-157 80-60 75 0H25v-261h50l-1 109c12-26 28-41 61-42 86-1 58 113 63 194h-50c-7-57 23-157-34-157" id="aE"/><g id="y"><use transform="matrix(0.05,0,0,0.05,0,0)" xlink:href="#T"/><use transform="matrix(0.05,0,0,0.05,5.95,0)" xlink:href="#U"/><use transform="matrix(0.05,0,0,0.05,10.95,0)" xlink:href="#aB"/><use transform="matrix(0.05,0,0,0.05,20.95,0)" xlink:href="#aC"/><use transform="matrix(0.05,0,0,0.05,31.899999999999995,0)" xlink:href="#aD"/><use transform="matrix(0.05,0,0,0.05,41.9,0)" xlink:href="#aE"/><use transform="matrix(0.05,0,0,0.05,52.85,0)" xlink:href="#ay"/><use transform="matrix(0.05,0,0,0.05,57.85,0)" xlink:href="#ax"/></g><g id="z"><use transform="matrix(0.05,0,0,0.05,0,0)" xlink:href="#ag"/><use transform="matrix(0.05,0,0,0.05,5,0)" xlink:href="#ah"/><use transform="matrix(0.05,0,0,0.05,8.95,0)" xlink:href="#aj"/><use transform="matrix(0.05,0,0,0.05,18.95,0)" xlink:href="#an"/><use transform="matrix(0.05,0,0,0.05,28.950000000000003,0)" xlink:href="#as"/><use transform="matrix(0.05,0,0,0.05,37.95,0)" xlink:href="#aw"/><use transform="matrix(0.05,0,0,0.05,47.95,0)" xlink:href="#V"/><use transform="matrix(0.05,0,0,0.05,51.900000000000006,0)" xlink:href="#aq"/><use transform="matrix(0.05,0,0,0.05,61.900000000000006,0)" xlink:href="#ai"/><use transform="matrix(0.05,0,0,0.05,71.9,0)" xlink:href="#aa"/><use transform="matrix(0.05,0,0,0.05,81.9,0)" xlink:href="#aj"/><use transform="matrix(0.05,0,0,0.05,91.9,0)" xlink:href="#ak"/><use transform="matrix(0.05,0,0,0.05,106.85000000000001,0)" xlink:href="#al"/><use transform="matrix(0.05,0,0,0.05,116.85000000000001,0)" xlink:href="#X"/></g><g id="A"><use transform="matrix(0.05,0,0,0.05,0,0)" xlink:href="#ag"/><use transform="matrix(0.05,0,0,0.05,5,0)" xlink:href="#ah"/><use transform="matrix(0.05,0,0,0.05,8.95,0)" xlink:href="#aj"/><use transform="matrix(0.05,0,0,0.05,18.95,0)" xlink:href="#an"/><use transform="matrix(0.05,0,0,0.05,28.950000000000003,0)" xlink:href="#as"/><use transform="matrix(0.05,0,0,0.05,37.95,0)" xlink:href="#aw"/><use transform="matrix(0.05,0,0,0.05,47.95,0)" xlink:href="#V"/><use transform="matrix(0.05,0,0,0.05,51.900000000000006,0)" xlink:href="#aq"/><use transform="matrix(0.05,0,0,0.05,61.900000000000006,0)" xlink:href="#ai"/><use transform="matrix(0.05,0,0,0.05,71.9,0)" xlink:href="#V"/><use transform="matrix(0.05,0,0,0.05,75.85000000000001,0)" xlink:href="#aa"/><use transform="matrix(0.05,0,0,0.05,85.85000000000001,0)" xlink:href="#as"/><use transform="matrix(0.05,0,0,0.05,94.85000000000001,0)" xlink:href="#ab"/><use transform="matrix(0.05,0,0,0.05,99.85000000000001,0)" xlink:href="#V"/><use transform="matrix(0.05,0,0,0.05,103.80000000000001,0)" xlink:href="#ab"/><use transform="matrix(0.05,0,0,0.05,108.80000000000001,0)" xlink:href="#ar"/><use transform="matrix(0.05,0,0,0.05,118.80000000000001,0)" xlink:href="#ab"/><use transform="matrix(0.05,0,0,0.05,123.80000000000001,0)" xlink:href="#al"/><use transform="matrix(0.05,0,0,0.05,133.8,0)" xlink:href="#X"/></g><g id="B"><use transform="matrix(0.05,0,0,0.05,0,0)" xlink:href="#ag"/><use transform="matrix(0.05,0,0,0.05,5,0)" xlink:href="#ah"/><use transform="matrix(0.05,0,0,0.05,8.95,0)" xlink:href="#aj"/><use transform="matrix(0.05,0,0,0.05,18.95,0)" xlink:href="#an"/><use transform="matrix(0.05,0,0,0.05,28.950000000000003,0)" xlink:href="#as"/><use transform="matrix(0.05,0,0,0.05,37.95,0)" xlink:href="#aw"/><use transform="matrix(0.05,0,0,0.05,47.95,0)" xlink:href="#V"/><use transform="matrix(0.05,0,0,0.05,51.900000000000006,0)" xlink:href="#aq"/><use transform="matrix(0.05,0,0,0.05,61.900000000000006,0)" xlink:href="#ai"/><use transform="matrix(0.05,0,0,0.05,71.9,0)" xlink:href="#ah"/><use transform="matrix(0.05,0,0,0.05,75.85000000000001,0)" xlink:href="#al"/><use transform="matrix(0.05,0,0,0.05,85.85000000000001,0)" xlink:href="#aj"/><use transform="matrix(0.05,0,0,0.05,95.85000000000001,0)" xlink:href="#W"/><use transform="matrix(0.05,0,0,0.05,105.85000000000001,0)" xlink:href="#X"/></g><path d="M30-248c118-7 216 8 213 122C240-48 200 0 122 0H30v-248zM63-27c89 8 146-16 146-99s-60-101-146-95v194" id="aF"/><path d="M127-220V0H93v-220H8v-28h204v28h-85" id="aG"/><g id="C"><use transform="matrix(0.05,0,0,0.05,0,0)" xlink:href="#ag"/><use transform="matrix(0.05,0,0,0.05,5,0)" xlink:href="#ah"/><use transform="matrix(0.05,0,0,0.05,8.95,0)" xlink:href="#aj"/><use transform="matrix(0.05,0,0,0.05,18.95,0)" xlink:href="#an"/><use transform="matrix(0.05,0,0,0.05,28.950000000000003,0)" xlink:href="#as"/><use transform="matrix(0.05,0,0,0.05,37.95,0)" xlink:href="#aw"/><use transform="matrix(0.05,0,0,0.05,47.95,0)" xlink:href="#V"/><use transform="matrix(0.05,0,0,0.05,51.900000000000006,0)" xlink:href="#aq"/><use transform="matrix(0.05,0,0,0.05,61.900000000000006,0)" xlink:href="#aF"/><use transform="matrix(0.05,0,0,0.05,74.85000000000001,0)" xlink:href="#V"/><use transform="matrix(0.05,0,0,0.05,78.80000000000001,0)" xlink:href="#as"/><use transform="matrix(0.05,0,0,0.05,87.80000000000001,0)" xlink:href="#al"/><use transform="matrix(0.05,0,0,0.05,97.80000000000001,0)" xlink:href="#aj"/><use transform="matrix(0.05,0,0,0.05,107.80000000000001,0)" xlink:href="#as"/><use transform="matrix(0.05,0,0,0.05,116.80000000000001,0)" xlink:href="#al"/><use transform="matrix(0.05,0,0,0.05,126.80000000000001,0)" xlink:href="#aG"/><use transform="matrix(0.05,0,0,0.05,136.75,0)" xlink:href="#ap"/><use transform="matrix(0.05,0,0,0.05,145.75,0)" xlink:href="#aq"/><use transform="matrix(0.05,0,0,0.05,155.75,0)" xlink:href="#al"/><use transform="matrix(0.05,0,0,0.05,165.75,0)" xlink:href="#X"/></g><path d="M27 0v-27h64v-190l-56 39v-29l58-41h29v221h61V0H27" id="aH"/><path d="M33 0v-38h34V0H33" id="aI"/><g id="D"><use transform="matrix(0.05,0,0,0.05,0,0)" xlink:href="#aH"/><use transform="matrix(0.05,0,0,0.05,10,0)" xlink:href="#aI"/><use transform="matrix(0.05,0,0,0.05,15,0)" xlink:href="#aI"/><use transform="matrix(0.05,0,0,0.05,20,0)" xlink:href="#ak"/></g><use transform="matrix(0.05,0,0,0.05,0,0)" xlink:href="#aH" id="E"/><path d="M-4 44V30h207v14H-4" id="aJ"/><path d="M88-194c31-1 46 15 58 34l-1-101h50l1 261h-48c-2-10 0-23-3-31C134-8 116 4 84 4 32 4 16-41 15-95c0-56 19-97 73-99zm17 164c33 0 40-30 41-66 1-37-9-64-41-64s-38 30-39 65c0 43 13 65 39 65" id="aK"/><path d="M190-63c-7 42-38 67-86 67-59 0-84-38-90-98-12-110 154-137 174-36l-49 2c-2-19-15-32-35-32-30 0-35 28-38 64-6 74 65 87 74 30" id="aL"/><path d="M115-3C79 11 28 4 28-45v-112H4v-33h27l15-45h31v45h36v33H77v99c-1 23 16 31 38 25v30" id="aM"/><g id="F"><use transform="matrix(0.05,0,0,0.05,0,0)" xlink:href="#P"/><use transform="matrix(0.05,0,0,0.05,14,0)" xlink:href="#Q"/><use transform="matrix(0.05,0,0,0.05,24.950000000000003,0)" xlink:href="#R"/><use transform="matrix(0.05,0,0,0.05,31.950000000000003,0)" xlink:href="#S"/><use transform="matrix(0.05,0,0,0.05,41.95,0)" xlink:href="#T"/><use transform="matrix(0.05,0,0,0.05,47.900000000000006,0)" xlink:href="#U"/><use transform="matrix(0.05,0,0,0.05,52.900000000000006,0)" xlink:href="#Q"/><use transform="matrix(0.05,0,0,0.05,63.85,0)" xlink:href="#P"/><use transform="matrix(0.05,0,0,0.05,77.85000000000001,0)" xlink:href="#aJ"/><use transform="matrix(0.05,0,0,0.05,87.85000000000001,0)" xlink:href="#aK"/><use transform="matrix(0.05,0,0,0.05,98.80000000000001,0)" xlink:href="#az"/><use transform="matrix(0.05,0,0,0.05,108.80000000000001,0)" xlink:href="#aD"/><use transform="matrix(0.05,0,0,0.05,118.80000000000001,0)" xlink:href="#aL"/><use transform="matrix(0.05,0,0,0.05,128.8,0)" xlink:href="#R"/><use transform="matrix(0.05,0,0,0.05,135.8,0)" xlink:href="#ay"/><use transform="matrix(0.05,0,0,0.05,140.8,0)" xlink:href="#ax"/><use transform="matrix(0.05,0,0,0.05,151.75,0)" xlink:href="#aM"/><use transform="matrix(0.05,0,0,0.05,157.7,0)" xlink:href="#ay"/><use transform="matrix(0.05,0,0,0.05,162.7,0)" xlink:href="#Q"/><use transform="matrix(0.05,0,0,0.05,173.64999999999998,0)" xlink:href="#aA"/></g><g id="G"><use transform="matrix(0.05,0,0,0.05,0,0)" xlink:href="#W"/><use transform="matrix(0.05,0,0,0.05,10,0)" xlink:href="#al"/><use transform="matrix(0.05,0,0,0.05,20,0)" xlink:href="#as"/><use transform="matrix(0.05,0,0,0.05,29,0)" xlink:href="#au"/><use transform="matrix(0.05,0,0,0.05,38,0)" xlink:href="#ae"/><use transform="matrix(0.05,0,0,0.05,43.95,0)" xlink:href="#V"/><use transform="matrix(0.05,0,0,0.05,47.900000000000006,0)" xlink:href="#aq"/><use transform="matrix(0.05,0,0,0.05,57.900000000000006,0)" xlink:href="#ab"/><use transform="matrix(0.05,0,0,0.05,62.900000000000006,0)" xlink:href="#V"/><use transform="matrix(0.05,0,0,0.05,66.85000000000001,0)" xlink:href="#ad"/><use transform="matrix(0.05,0,0,0.05,76.85000000000001,0)" xlink:href="#aa"/><use transform="matrix(0.05,0,0,0.05,86.85000000000001,0)" xlink:href="#X"/></g><g id="H"><use transform="matrix(0.05,0,0,0.05,0,0)" xlink:href="#au"/><use transform="matrix(0.05,0,0,0.05,9,0)" xlink:href="#ac"/><use transform="matrix(0.05,0,0,0.05,21.950000000000003,0)" xlink:href="#ah"/><use transform="matrix(0.05,0,0,0.05,25.900000000000002,0)" xlink:href="#ai"/><use transform="matrix(0.05,0,0,0.05,35.900000000000006,0)" xlink:href="#ah"/><use transform="matrix(0.05,0,0,0.05,39.85000000000001,0)" xlink:href="#V"/><use transform="matrix(0.05,0,0,0.05,43.80000000000001,0)" xlink:href="#aa"/><use transform="matrix(0.05,0,0,0.05,53.80000000000001,0)" xlink:href="#af"/><use transform="matrix(0.05,0,0,0.05,62.80000000000001,0)" xlink:href="#X"/></g><path d="M108 0H70L1-190h34L89-25l56-165h34" id="aN"/><path d="M87 75C49 33 22-17 22-94c0-76 28-126 65-167h31c-38 41-64 92-64 168S80 34 118 75H87" id="aO"/><path d="M33-261c38 41 65 92 65 168S71 34 33 75H2C39 34 66-17 66-93S39-220 2-261h31" id="aP"/><g id="I"><use transform="matrix(0.05,0,0,0.05,0,0)" xlink:href="#aN"/><use transform="matrix(0.05,0,0,0.05,9,0)" xlink:href="#aj"/><use transform="matrix(0.05,0,0,0.05,19,0)" xlink:href="#ae"/><use transform="matrix(0.05,0,0,0.05,24.95,0)" xlink:href="#au"/><use transform="matrix(0.05,0,0,0.05,33.95,0)" xlink:href="#aw"/><use transform="matrix(0.05,0,0,0.05,43.95,0)" xlink:href="#aj"/><use transform="matrix(0.05,0,0,0.05,53.95,0)" xlink:href="#ae"/><use transform="matrix(0.05,0,0,0.05,59.900000000000006,0)" xlink:href="#aO"/><use transform="matrix(0.05,0,0,0.05,65.85000000000001,0)" xlink:href="#aP"/></g><path d="M85 4C-2 5 27-109 22-190h50c7 57-23 150 33 157 60-5 35-97 40-157h50l1 190h-47c-2-12 1-28-3-38-12 25-28 42-61 42" id="aQ"/><g id="J"><use transform="matrix(0.05,0,0,0.05,0,0)" xlink:href="#ay"/><use transform="matrix(0.05,0,0,0.05,5,0)" xlink:href="#aA"/><use transform="matrix(0.05,0,0,0.05,15.950000000000001,0)" xlink:href="#aD"/><use transform="matrix(0.05,0,0,0.05,25.950000000000003,0)" xlink:href="#aM"/><use transform="matrix(0.05,0,0,0.05,31.900000000000002,0)" xlink:href="#ay"/><use transform="matrix(0.05,0,0,0.05,36.900000000000006,0)" xlink:href="#aM"/><use transform="matrix(0.05,0,0,0.05,42.85000000000001,0)" xlink:href="#aQ"/><use transform="matrix(0.05,0,0,0.05,53.80000000000001,0)" xlink:href="#aM"/><use transform="matrix(0.05,0,0,0.05,59.750000000000014,0)" xlink:href="#az"/></g><g id="K"><use transform="matrix(0.05,0,0,0.05,0,0)" xlink:href="#V"/><use transform="matrix(0.05,0,0,0.05,3.95,0)" xlink:href="#aa"/><use transform="matrix(0.05,0,0,0.05,13.949999999999998,0)" xlink:href="#as"/><use transform="matrix(0.05,0,0,0.05,22.95,0)" xlink:href="#ab"/><use transform="matrix(0.05,0,0,0.05,27.950000000000003,0)" xlink:href="#V"/><use transform="matrix(0.05,0,0,0.05,31.899999999999995,0)" xlink:href="#ab"/><use transform="matrix(0.05,0,0,0.05,36.9,0)" xlink:href="#ar"/><use transform="matrix(0.05,0,0,0.05,46.9,0)" xlink:href="#ab"/><use transform="matrix(0.05,0,0,0.05,51.900000000000006,0)" xlink:href="#al"/><use transform="matrix(0.05,0,0,0.05,61.900000000000006,0)" xlink:href="#ai"/><use transform="matrix(0.05,0,0,0.05,71.9,0)" xlink:href="#aa"/><use transform="matrix(0.05,0,0,0.05,81.9,0)" xlink:href="#aj"/><use transform="matrix(0.05,0,0,0.05,91.9,0)" xlink:href="#ak"/><use transform="matrix(0.05,0,0,0.05,106.85000000000001,0)" xlink:href="#al"/><use transform="matrix(0.05,0,0,0.05,116.85000000000001,0)" xlink:href="#X"/></g><g id="L"><use transform="matrix(0.05,0,0,0.05,0,0)" xlink:href="#aq"/><use transform="matrix(0.05,0,0,0.05,10,0)" xlink:href="#V"/><use transform="matrix(0.05,0,0,0.05,13.949999999999998,0)" xlink:href="#aq"/><use transform="matrix(0.05,0,0,0.05,23.95,0)" xlink:href="#al"/><use transform="matrix(0.05,0,0,0.05,33.95,0)" xlink:href="#ah"/><use transform="matrix(0.05,0,0,0.05,37.900000000000006,0)" xlink:href="#V"/><use transform="matrix(0.05,0,0,0.05,41.85000000000001,0)" xlink:href="#aa"/><use transform="matrix(0.05,0,0,0.05,51.85,0)" xlink:href="#al"/><use transform="matrix(0.05,0,0,0.05,61.85,0)" xlink:href="#ai"/><use transform="matrix(0.05,0,0,0.05,71.85000000000001,0)" xlink:href="#V"/><use transform="matrix(0.05,0,0,0.05,75.80000000000001,0)" xlink:href="#aa"/><use transform="matrix(0.05,0,0,0.05,85.80000000000001,0)" xlink:href="#as"/><use transform="matrix(0.05,0,0,0.05,94.80000000000001,0)" xlink:href="#ab"/><use transform="matrix(0.05,0,0,0.05,99.80000000000001,0)" xlink:href="#V"/><use transform="matrix(0.05,0,0,0.05,103.75,0)" xlink:href="#ab"/><use transform="matrix(0.05,0,0,0.05,108.75,0)" xlink:href="#ar"/><use transform="matrix(0.05,0,0,0.05,118.75,0)" xlink:href="#ab"/><use transform="matrix(0.05,0,0,0.05,123.75,0)" xlink:href="#al"/><use transform="matrix(0.05,0,0,0.05,133.75,0)" xlink:href="#ai"/><use transform="matrix(0.05,0,0,0.05,143.75,0)" xlink:href="#ah"/><use transform="matrix(0.05,0,0,0.05,147.7,0)" xlink:href="#ad"/><use transform="matrix(0.05,0,0,0.05,157.7,0)" xlink:href="#an"/><use transform="matrix(0.05,0,0,0.05,167.7,0)" xlink:href="#ad"/><use transform="matrix(0.05,0,0,0.05,177.7,0)" xlink:href="#X"/></g><g id="M"><use transform="matrix(0.05,0,0,0.05,0,0)" xlink:href="#V"/><use transform="matrix(0.05,0,0,0.05,3.95,0)" xlink:href="#ak"/><use transform="matrix(0.05,0,0,0.05,18.900000000000002,0)" xlink:href="#aj"/><use transform="matrix(0.05,0,0,0.05,28.900000000000002,0)" xlink:href="#an"/><use transform="matrix(0.05,0,0,0.05,38.900000000000006,0)" xlink:href="#al"/></g><g id="N"><use transform="matrix(0.05,0,0,0.05,0,0)" xlink:href="#V"/><use transform="matrix(0.05,0,0,0.05,3.95,0)" xlink:href="#aa"/><use transform="matrix(0.05,0,0,0.05,13.949999999999998,0)" xlink:href="#as"/><use transform="matrix(0.05,0,0,0.05,22.95,0)" xlink:href="#ab"/><use transform="matrix(0.05,0,0,0.05,27.950000000000003,0)" xlink:href="#V"/><use transform="matrix(0.05,0,0,0.05,31.899999999999995,0)" xlink:href="#ab"/><use transform="matrix(0.05,0,0,0.05,36.9,0)" xlink:href="#ar"/><use transform="matrix(0.05,0,0,0.05,46.9,0)" xlink:href="#ab"/><use transform="matrix(0.05,0,0,0.05,51.900000000000006,0)" xlink:href="#al"/><use transform="matrix(0.05,0,0,0.05,61.900000000000006,0)" xlink:href="#ai"/><use transform="matrix(0.05,0,0,0.05,71.9,0)" xlink:href="#ah"/><use transform="matrix(0.05,0,0,0.05,75.85000000000001,0)" xlink:href="#ad"/><use transform="matrix(0.05,0,0,0.05,85.85000000000001,0)" xlink:href="#aa"/><use transform="matrix(0.05,0,0,0.05,95.85000000000001,0)" xlink:href="#an"/><use transform="matrix(0.05,0,0,0.05,105.85000000000001,0)" xlink:href="#X"/></g><g id="O"><use transform="matrix(0.05,0,0,0.05,0,0)" xlink:href="#V"/><use transform="matrix(0.05,0,0,0.05,3.95,0)" xlink:href="#aa"/><use transform="matrix(0.05,0,0,0.05,13.949999999999998,0)" xlink:href="#as"/><use transform="matrix(0.05,0,0,0.05,22.95,0)" xlink:href="#ab"/><use transform="matrix(0.05,0,0,0.05,27.950000000000003,0)" xlink:href="#V"/><use transform="matrix(0.05,0,0,0.05,31.899999999999995,0)" xlink:href="#ab"/><use transform="matrix(0.05,0,0,0.05,36.9,0)" xlink:href="#ar"/><use transform="matrix(0.05,0,0,0.05,46.9,0)" xlink:href="#ab"/><use transform="matrix(0.05,0,0,0.05,51.900000000000006,0)" xlink:href="#al"/><use transform="matrix(0.05,0,0,0.05,61.900000000000006,0)" xlink:href="#ai"/><use transform="matrix(0.05,0,0,0.05,71.9,0)" xlink:href="#ah"/><use transform="matrix(0.05,0,0,0.05,75.85000000000001,0)" xlink:href="#aj"/><use transform="matrix(0.05,0,0,0.05,85.85000000000001,0)" xlink:href="#ab"/><use transform="matrix(0.05,0,0,0.05,90.85000000000001,0)" xlink:href="#X"/></g></defs></g></svg>