<?xml version="1.0" encoding="utf-8"?>
<!-- Generator: Adobe Illustrator 19.2.1, SVG Export Plug-In . SVG Version: 6.00 Build 0)  -->
<svg version="1.1" id="Layer_1" xmlns="http://www.w3.org/2000/svg" xmlns:xlink="http://www.w3.org/1999/xlink" x="0px" y="0px"
	 viewBox="0 0 636.7 178.75" enable-background="new 0 0 636.7 178.75" xml:space="preserve">
<g>
	<linearGradient id="SVGID_1_" gradientUnits="userSpaceOnUse" x1="0" y1="89.3754" x2="202.038" y2="89.3754">
		<stop  offset="0" style="stop-color:#00ACD4"/>
		<stop  offset="0.5092" style="stop-color:#0071B7"/>
		<stop  offset="1" style="stop-color:#003375"/>
	</linearGradient>
	<path fill="url(#SVGID_1_)" d="M201.61,127.78c-0.93-8.83-3.91-17.67-8.67-25.23c-4.73-7.61-10.93-13.85-17.24-19.32
		c-1.61-1.39-3.22-2.74-4.84-4.06c1.7-2.57,3.29-5.25,4.72-8.06c0.5-1.03,1.01-2.06,1.51-3.22c0.28-0.61,0.42-0.99,0.62-1.48
		l0.66-1.67c0.8-2.2,1.49-4.45,1.99-6.77c1.04-4.61,1.48-9.4,1.26-14.14c-0.12-2.37-0.39-4.72-0.8-7.03
		c-0.42-2.4-0.97-4.49-1.56-6.65c-1.2-4.31-2.75-8.64-4.98-12.85c-2.24-4.18-5.29-8.31-9.45-11.52c-4.2-3.21-9.16-5.25-14.53-5.71
		c-1.35-0.11-2.71-0.11-4.08,0.01c-1.32,0.11-2.9,0.39-4.09,0.73c-2.69,0.74-5.26,2.03-7.45,3.74c-4.42,3.43-7.06,8.22-8.47,12.8
		c-0.36,1.17-0.65,2.28-0.9,3.54l-0.14,0.75l-0.16,0.96c-0.1,0.61-0.16,1.21-0.22,1.82c-0.22,2.41-0.17,4.76,0.05,7.05
		c0.24,2.28,0.55,4.51,0.9,6.72c0.37,2.2,0.92,4.38,1.6,6.46c1.37,4.19,3.14,8.2,5.27,12.05c1.07,1.92,2.23,3.8,3.53,5.63
		c1.32,1.88,2.73,3.6,4.19,5.23c2.91,3.26,6.02,6.19,9.17,8.94c0.27,0.24,0.55,0.46,0.82,0.69c-1.01,1.18-2.05,2.34-3.13,3.48
		c-0.51,0.55-1.15,1.16-1.86,1.85l-2.14,2.04l-4.38,4.13c-11.76,11.07-23.59,22.14-35.18,33.72c-0.73,0.74-1.46,1.49-2.19,2.23
		c-4.37-3.59-8.77-6.81-13.06-10.01c-6.51-4.8-12.84-9.47-18.66-14.45c-2.91-2.49-5.68-5.05-8.26-7.71
		c-1.55-1.62-3.12-3.33-4.66-5.07c1-0.71,2.01-1.43,3.01-2.18c1.74-1.31,3.47-2.69,5.18-4.18c0.81-0.7,1.78-1.6,2.58-2.37l1.19-1.18
		c0.43-0.44,0.86-0.89,1.26-1.34c3.26-3.62,5.84-7.51,8.01-11.62c2.15-4.12,3.89-8.48,5.02-13.14c1.13-4.66,1.71-9.64,1.08-14.96
		l-0.16-1.12l-0.09-0.55l-0.07-0.37l-0.14-0.74l-0.25-1.12c-0.3-1.23-0.66-2.46-1.08-3.69c-0.85-2.46-2.01-4.9-3.51-7.21
		c-2.96-4.64-7.56-8.67-12.96-10.82C60.45,8.61,54.5,8.25,49.06,9.45c-0.7,0.15-1.31,0.3-2.11,0.54l-0.91,0.28l-0.36,0.12
		l-0.63,0.23c-1.33,0.49-2.64,1.08-3.9,1.76c-2.51,1.38-4.79,3.14-6.73,5.1c-3.89,3.96-6.42,8.54-8.2,13.01
		c-0.89,2.25-1.6,4.5-2.19,6.73c-0.27,1.05-0.59,2.43-0.78,3.31c-0.25,1.21-0.46,2.38-0.63,3.58c-1.4,9.6,0.28,19.56,3.8,28.1
		c1.77,4.28,3.91,8.22,6.28,11.92c-0.8,0.54-1.6,1.09-2.4,1.65c-6.88,4.81-13.99,10.43-19.67,17.96c-2.82,3.75-5.22,7.95-6.95,12.4
		c-1.75,4.44-2.83,9.1-3.35,13.71c-0.52,4.61-0.43,9.19,0.17,13.6c0.59,4.41,1.66,8.67,3.25,12.7c0.96,2.43,3.39,4.11,6.15,3.99
		c3.47-0.16,6.16-3.1,6-6.58l0-0.09c-0.35-7.7-0.8-14.97,0.04-21.8c0.81-6.84,3.24-13.01,7.36-18.38c4.1-5.39,9.79-10,16.14-14.37
		c0.95-0.66,1.92-1.31,2.89-1.96c2.15,2.55,4.34,4.99,6.7,7.45c3.03,3.14,6.2,6.07,9.42,8.83c6.45,5.54,13.13,10.46,19.6,15.26
		c3.98,2.96,7.92,5.88,11.58,8.85c-0.4,0.49-0.8,1-1.21,1.55c-0.74,1.05-1.63,2.12-2.64,4.42c-1.95,4.69-3.41,10.45-2.14,16.95
		c0.67,3.09,1.72,5.71,3.31,8.36c1.58,2.61,3.8,5.22,6.95,7.21c3.12,2.01,7.15,3.01,10.67,2.85l0.33-0.01
		c-0.15,0.01,0.59-0.04,0.57-0.04l0.38-0.04l0.45-0.04l0.84-0.12c0.59-0.09,1.04-0.2,1.5-0.31c0.46-0.1,0.93-0.25,1.4-0.41
		c1.86-0.61,3.71-1.6,5.28-2.86c3.2-2.53,5.11-5.85,6.17-8.9c1.06-3.13,1.48-6.04,1.29-9.43c-0.03-0.44-0.07-0.87-0.14-1.35
		l-0.05-0.35l-0.07-0.4l-0.07-0.37c-0.06-0.37-0.26-1.3-0.44-2.03c-0.35-1.33-0.76-2.63-1.25-3.89c-0.98-2.51-2.2-4.83-3.56-6.93
		c-1.03-1.59-2.13-3.04-3.26-4.43c0.68-0.69,1.35-1.37,2.04-2.06c11.29-11.24,23.05-22.23,34.83-33.27l4.44-4.17l2.24-2.13
		c0.74-0.71,1.56-1.49,2.43-2.42c1.34-1.41,2.65-2.87,3.93-4.36c1.42,1.19,2.82,2.38,4.18,3.58c5.82,5.14,11.03,10.61,14.77,16.8
		c3.77,6.17,6,13.04,6.71,20.28c0.72,7.25,0.03,14.73-1.53,22.25c0,0.01-0.01,0.06-0.01,0.07c-0.66,3.37,1.54,6.64,4.92,7.29
		c3.37,0.66,6.64-1.54,7.29-4.92l0.01-0.06C201.8,145.41,202.59,136.62,201.61,127.78z M42.18,65.73
		c-2.63-6.36-3.69-12.89-2.82-19.32c0.11-0.8,0.25-1.61,0.4-2.38c0.22-1.09,0.36-1.68,0.59-2.59c0.43-1.67,0.93-3.28,1.52-4.79
		c1.17-3.02,2.7-5.61,4.48-7.43c1.81-1.83,3.73-2.91,6.27-3.49c2.44-0.56,4.91-0.37,7.02,0.47c2.11,0.84,3.92,2.33,5.34,4.47
		c0.71,1.07,1.31,2.29,1.79,3.65c0.24,0.68,0.45,1.39,0.63,2.12l0.07,0.28l0.03,0.14c0-0.02,0.02,0.06,0.02,0.09l0.12,0.6l0.07,0.37
		l0.02,0.2l0.06,0.38c0.34,2.71,0.09,5.89-0.68,9.07c-0.75,3.19-2,6.41-3.56,9.45c-1.57,3.03-3.49,5.92-5.63,8.32
		c-0.26,0.3-0.54,0.58-0.81,0.87l-0.96,0.96c-0.66,0.63-1.16,1.1-1.87,1.73c-1.33,1.18-2.75,2.32-4.23,3.45
		c-1.01,0.77-2.06,1.53-3.13,2.28C45.05,71.69,43.43,68.73,42.18,65.73z M104.54,164.25c-5.26,0.81-6.67-6.24-6.69-6.31
		c-0.53-3.48,0.79-7.92,3.75-12.87c4.3,3.84,6.89,7.68,7.43,11.16C109.03,156.3,109.8,163.44,104.54,164.25z M148.65,60.01
		c-1.25-1.37-2.42-2.77-3.43-4.18c-1.06-1.46-2.04-3-2.95-4.6c-1.82-3.19-3.36-6.59-4.54-10.06c-0.6-1.75-1.14-3.48-1.61-5.22
		c-0.48-1.74-0.78-3.51-0.85-5.26c-0.07-1.74,0-3.45,0.23-5.05c0.07-0.39,0.12-0.8,0.21-1.18l0.12-0.53l0.18-0.74
		c0.19-0.71,0.45-1.55,0.73-2.29c1.12-3.03,2.85-5.49,4.96-6.9c2.09-1.43,4.58-1.95,7.25-1.52c2.66,0.42,5.41,1.75,7.47,3.62
		c4.25,3.8,6.95,10.41,8.2,17.49c0.33,1.77,0.57,3.64,0.66,5.25c0.11,1.7,0.11,3.39,0,5.05c-0.19,3.34-0.79,6.62-1.73,9.83
		c-0.49,1.6-1.04,3.2-1.67,4.77l-0.47,1.15c-0.19,0.44-0.41,1-0.56,1.3c-0.31,0.69-0.68,1.47-1.07,2.25
		c-0.82,1.63-1.74,3.23-2.72,4.81c-0.06-0.05-0.12-0.09-0.17-0.14C153.95,65.35,151.15,62.76,148.65,60.01z"/>
	<g>
		<path fill="#0056A0" d="M287.63,27.15c1.58-4.23,3.57-6.08,7-6.08c3.7,0,6.89,2.92,6.89,6.48c0,1.18-0.39,2.65-0.93,4.24
			l-31.08,85.42c-2.25,6.08-5.17,8.61-10.04,8.61c-4.77,0-7.82-2.53-10.07-8.48l-31.74-84.37c-0.66-1.85-1.05-3.44-1.05-4.77
			c0-3.83,3.56-7.14,7.53-7.14c3.7,0,6.09,1.98,7.82,6.62l27.9,75.78L287.63,27.15z"/>
		<path fill="#0056A0" d="M354.97,34.7c-18.77,0-31.33,15.47-31.33,38.75c0,23.14,12.55,38.74,31.33,38.74
			c10.32,0,12.04-0.8,21.69-9.52c2.25-1.98,3.58-2.64,5.69-2.64c4.23,0,7.68,3.3,7.68,7.66c0,1.72-0.93,3.58-2.65,5.55
			c-6.75,8.08-18.53,12.71-31.74,12.71c-29.1,0-48.01-20.76-48.01-52.5c0-31.74,18.91-52.51,47.73-52.51
			c9.39,0,18.91,2.52,25.26,6.61c5.43,3.44,9.52,8.86,9.52,12.43c0,4.37-2.37,6.75-6.48,6.75c-2.52,0-4.76-0.92-7.8-3.3l-4.62-3.57
			C367.27,36.8,361.04,34.7,354.97,34.7z"/>
		<path fill="#0056A0" d="M466.44,82.67h-15.88c-4.9,0-7.81-2.24-7.81-6.35c0-3.97,2.91-6.34,7.81-6.34h21.82
			c6.61,0,9.4,2.65,9.4,9.39v26.87c0,3.31-0.27,4.23-1.19,5.81c-4.91,7.68-19.58,13.89-32.94,13.89c-28.97,0-47.88-20.76-47.88-52.5
			c0-19.32,7.79-36.37,20.49-44.71c6.88-4.48,19.04-7.8,28.96-7.8c8.34,0,15.61,1.99,22.2,6.08c6.63,4.23,10.73,9.39,10.73,13.89
			c0,3.71-2.51,5.95-6.74,5.95c-2.65,0-4.23-0.79-7.94-3.97c-7.14-5.94-12.56-8.19-19.71-8.19c-19.44,0-32,15.21-32,38.75
			c0,23.27,12.56,38.74,31.34,38.74c7,0,12.05-1.85,19.32-7.28V82.67z"/>
		<path fill="#0056A0" d="M530.34,34.7c-10.85,0-17.98,5.02-17.98,12.7c0,3.96,1.72,6.88,5.96,9.65c3.57,2.38,5.81,3.44,17.97,9.12
			c11.25,5.17,15.61,7.81,19.71,11.91c4.1,4.09,6.36,10.19,6.36,16.78c0,18.79-13.5,31.09-33.87,31.09
			c-10.71,0-22.21-2.38-28.83-5.95c-2.64-1.46-4.24-3.83-4.24-6.61c0-3.98,3.32-7.41,7.02-7.41c1.06,0,2.38,0.13,3.96,0.79
			l5.69,2.25c5.29,2.11,10.97,3.17,16.53,3.17c10.71,0,18.12-6.61,18.12-15.87c0-3.96-1.32-7.27-4.23-9.39
			c-3.32-2.52-9.26-5.81-14.8-8.33l-11.11-5.02c-2.92-1.32-5.7-2.91-8.34-4.89c-8.46-6.22-11.38-11.38-11.38-20.24
			c0-16.4,13.63-27.51,34-27.51c8.72,0,19.05,2.25,25.91,5.7c3.57,1.72,5.03,3.82,5.03,7.13c0,3.7-3.18,6.75-6.86,6.75
			c-1.2,0-2.66-0.26-4.24-0.92l-7.01-2.64C539.59,35.36,535.1,34.7,530.34,34.7z"/>
	</g>
	<g>
		<path fill="#808285" d="M254.98,161.44c1.21,0,1.93,0.56,1.93,1.57c0,0.98-0.72,1.57-1.93,1.57h-11.33
			c-1.64,0-2.29-0.66-2.29-2.33v-20.9c0-1.47,0.69-2.33,1.87-2.33c1.21,0,1.9,0.85,1.9,2.33v20.08H254.98z"/>
		<path fill="#808285" d="M266.75,161.87c1.34,0,2.69-0.46,3.28-1.11l0.98-1.11c0.46-0.52,0.82-0.72,1.38-0.72
			c0.92,0,1.7,0.75,1.7,1.67c0,0.39-0.16,0.79-0.46,1.21c-1.64,2.26-3.87,3.34-6.88,3.34c-2.78,0-4.65-0.82-6.13-2.69
			c-1.47-1.83-2.23-4.36-2.23-7.27c0-6.09,3.31-9.96,8.58-9.96c4.88,0,7.76,3.44,7.76,9.3c0,1.51-0.72,2.16-2.29,2.16h-10.38
			C262.36,160.1,263.96,161.87,266.75,161.87z M270.94,153.65c-0.2-3.64-1.44-5.14-4.29-5.14c-2.88,0-4.39,1.7-4.59,5.14H270.94z"/>
		<path fill="#808285" d="M291.16,147.06c0.16-1.15,0.72-1.7,1.67-1.7c1.02,0,1.61,0.72,1.61,1.97v15.72c0,1.25-0.59,1.97-1.61,1.97
			c-0.95,0-1.47-0.56-1.67-1.7l-0.2-1.25c-1.61,2.1-3.38,3.08-5.54,3.08c-4.42,0-7.7-4.26-7.7-9.99c0-5.6,3.34-9.93,7.76-9.93
			c2.1,0,3.87,1.02,5.47,3.11L291.16,147.06z M286.01,148.5c-2.88,0-4.72,2.49-4.72,6.49c0,4.13,1.9,6.91,4.75,6.91
			c2.95,0.03,4.82-2.62,4.82-6.68C290.86,151.12,288.96,148.5,286.01,148.5z"/>
		<path fill="#808285" d="M305.15,165.15c-4.49,0-7.5-4.06-7.5-10.09c0-5.86,3.01-9.83,7.53-9.83c2.29,0,3.93,0.95,5.6,3.24v-8.16
			c0-1.34,0.66-2.13,1.74-2.13c1.11,0,1.74,0.79,1.74,2.13v22.74c0,1.25-0.59,2-1.61,2c-0.92,0-1.51-0.59-1.67-1.74l-0.2-1.34
			C309.64,163.93,307.48,165.15,305.15,165.15z M305.94,148.5c-2.88,0-4.68,2.49-4.68,6.49c0,4.13,1.87,6.91,4.75,6.91
			c2.92,0,4.82-2.62,4.82-6.68C310.82,151.12,308.92,148.5,305.94,148.5z"/>
		<path fill="#808285" d="M325.86,161.87c1.34,0,2.69-0.46,3.28-1.11l0.98-1.11c0.46-0.52,0.82-0.72,1.38-0.72
			c0.92,0,1.7,0.75,1.7,1.67c0,0.39-0.16,0.79-0.46,1.21c-1.64,2.26-3.87,3.34-6.88,3.34c-2.78,0-4.65-0.82-6.13-2.69
			c-1.47-1.83-2.23-4.36-2.23-7.27c0-6.09,3.31-9.96,8.58-9.96c4.88,0,7.76,3.44,7.76,9.3c0,1.51-0.72,2.16-2.29,2.16h-10.38
			C321.47,160.1,323.07,161.87,325.86,161.87z M330.05,153.65c-0.2-3.64-1.44-5.14-4.29-5.14c-2.88,0-4.39,1.7-4.59,5.14H330.05z"/>
		<path fill="#808285" d="M345.52,145.23c1.9,0,3.64,1.21,3.64,2.55c0,1.08-0.85,1.93-1.93,1.93c-0.39,0-0.59-0.03-0.95-0.23
			c-0.79-0.43-1.05-0.52-1.64-0.52c-1.25,0-2.26,0.69-2.98,1.97c-0.79,1.41-1.08,3.11-1.08,6.16v5.83c0,1.34-0.62,2.13-1.74,2.13
			c-1.11,0-1.74-0.79-1.74-2.13V147c0-1.05,0.49-1.64,1.34-1.64c0.82,0,1.28,0.52,1.38,1.51l0.33,2.95
			C341.26,146.93,343.26,145.23,345.52,145.23z"/>
		<path fill="#808285" d="M355.97,161.9c2.06,0,3.44-1.15,3.44-2.75c0-1.11-0.59-1.7-2.42-2.33c-1.9-0.66-2.65-0.92-3.44-1.28
			c-1.9-0.88-3.05-2.65-3.05-4.65c0-3.21,2.88-5.67,6.65-5.67c1.47,0,3.37,0.36,4.55,0.88c0.62,0.26,1.02,0.92,1.02,1.57
			c0,0.95-0.75,1.74-1.67,1.74c-0.23,0-0.49-0.07-0.72-0.16l-1.31-0.49c-0.49-0.2-1.08-0.26-1.8-0.26c-1.9,0-3.11,0.82-3.11,2.16
			c0,0.52,0.23,1.05,0.62,1.41c0.36,0.33,0.95,0.62,2.06,1.05l2.46,0.92c2.55,0.95,3.77,2.52,3.77,4.82c0,3.7-2.92,6.32-7.04,6.32
			c-1.83,0-4.19-0.46-5.41-1.02c-0.62-0.29-1.02-0.85-1.02-1.51c0-0.95,0.75-1.67,1.7-1.67c0.23,0,0.43,0.03,0.59,0.13
			C352.63,161.51,354.66,161.9,355.97,161.9z"/>
		<path fill="#808285" d="M377.95,138.09c1.15,0,2.06,0.92,2.06,2.06s-0.92,2.1-2.06,2.1c-1.15,0-2.1-0.95-2.1-2.1
			S376.77,138.09,377.95,138.09z M377.95,165.05c-1.11,0-1.77-0.79-1.77-2.13v-15.43c0-1.38,0.65-2.13,1.77-2.13
			c1.08,0,1.74,0.75,1.74,2.13v15.43C379.69,164.26,379.04,165.05,377.95,165.05z"/>
		<path fill="#808285" d="M394.43,145.23c2.03,0,3.6,0.92,4.26,2.52c0.43,1.08,0.49,1.54,0.49,4.23v10.94
			c0,1.34-0.62,2.13-1.74,2.13c-1.11,0-1.74-0.79-1.74-2.13v-10.78c0-2.49-0.62-3.47-2.2-3.47c-1.51,0-3.37,0.82-5.44,2.39v11.86
			c0,1.34-0.66,2.13-1.77,2.13c-1.08,0-1.74-0.79-1.74-2.13v-15.56c0-1.28,0.62-2,1.67-2c0.82,0,1.31,0.46,1.54,1.34l0.29,1.15
			C390.37,146.05,392.3,145.23,394.43,145.23z"/>
		<path fill="#808285" d="M429.16,155.61h-3.93c-1.21,0-1.93-0.56-1.93-1.57c0-0.98,0.72-1.57,1.93-1.57h5.41
			c1.64,0,2.33,0.66,2.33,2.33v5.37c0,0.82-0.07,1.05-0.29,1.44c-1.21,1.9-4.85,3.44-8.16,3.44c-7.17,0-11.86-5.14-11.86-13.01
			c0-4.78,1.93-9.01,5.08-11.07c1.7-1.11,4.72-1.93,7.17-1.93c2.06,0,3.87,0.49,5.5,1.51c1.64,1.05,2.65,2.33,2.65,3.44
			c0,0.92-0.62,1.47-1.67,1.47c-0.66,0-1.05-0.2-1.97-0.98c-1.77-1.47-3.11-2.03-4.88-2.03c-4.82,0-7.93,3.77-7.93,9.6
			c0,5.77,3.11,9.6,7.76,9.6c1.74,0,2.98-0.46,4.78-1.8V155.61z"/>
		<path fill="#808285" d="M444.17,161.87c1.34,0,2.69-0.46,3.28-1.11l0.98-1.11c0.46-0.52,0.82-0.72,1.38-0.72
			c0.92,0,1.7,0.75,1.7,1.67c0,0.39-0.16,0.79-0.46,1.21c-1.64,2.26-3.87,3.34-6.88,3.34c-2.78,0-4.65-0.82-6.13-2.69
			c-1.47-1.83-2.23-4.36-2.23-7.27c0-6.09,3.31-9.96,8.58-9.96c4.88,0,7.76,3.44,7.76,9.3c0,1.51-0.72,2.16-2.29,2.16h-10.38
			C439.78,160.1,441.39,161.87,444.17,161.87z M448.37,153.65c-0.2-3.64-1.44-5.14-4.29-5.14c-2.88,0-4.39,1.7-4.59,5.14H448.37z"/>
		<path fill="#808285" d="M465.27,145.23c2.03,0,3.6,0.92,4.26,2.52c0.43,1.08,0.49,1.54,0.49,4.23v10.94
			c0,1.34-0.62,2.13-1.74,2.13c-1.11,0-1.74-0.79-1.74-2.13v-10.78c0-2.49-0.62-3.47-2.2-3.47c-1.51,0-3.37,0.82-5.44,2.39v11.86
			c0,1.34-0.65,2.13-1.77,2.13c-1.08,0-1.74-0.79-1.74-2.13v-15.56c0-1.28,0.62-2,1.67-2c0.82,0,1.31,0.46,1.54,1.34l0.29,1.15
			C461.21,146.05,463.14,145.23,465.27,145.23z"/>
		<path fill="#808285" d="M481.52,161.87c1.34,0,2.69-0.46,3.28-1.11l0.98-1.11c0.46-0.52,0.82-0.72,1.38-0.72
			c0.92,0,1.7,0.75,1.7,1.67c0,0.39-0.16,0.79-0.46,1.21c-1.64,2.26-3.87,3.34-6.88,3.34c-2.78,0-4.65-0.82-6.13-2.69
			c-1.47-1.83-2.23-4.36-2.23-7.27c0-6.09,3.31-9.96,8.58-9.96c4.88,0,7.76,3.44,7.76,9.3c0,1.51-0.72,2.16-2.29,2.16h-10.38
			C477.14,160.1,478.74,161.87,481.52,161.87z M485.72,153.65c-0.2-3.64-1.44-5.14-4.29-5.14c-2.88,0-4.39,1.7-4.59,5.14H485.72z"/>
		<path fill="#808285" d="M494.24,143.62c0-1.11,0.03-1.31,0.26-1.8c0.26-0.52,0.82-0.82,1.57-0.82c1.28,0,1.64,0.62,1.64,2.72v2.06
			h2.36c1.21,0,1.83,0.52,1.83,1.54c0,0.98-0.66,1.51-1.83,1.51h-2.36v10.16c0,1.67,0.03,1.8,0.1,2.16
			c0.16,0.59,0.56,0.82,1.41,0.82c0.1,0,0.2,0,0.3-0.03l0.75-0.23c0.23-0.07,0.46-0.1,0.69-0.1c0.88,0,1.44,0.62,1.44,1.51
			c0,1.28-1.44,2.03-3.87,2.03c-1.44,0-2.42-0.29-3.18-0.95c-0.92-0.79-1.11-1.6-1.11-4.78v-10.58h-1.08
			c-1.21,0-1.83-0.52-1.83-1.54c0-0.98,0.66-1.51,1.83-1.51h1.08V143.62z"/>
		<path fill="#808285" d="M506.49,138.09c1.15,0,2.06,0.92,2.06,2.06s-0.92,2.1-2.06,2.1c-1.15,0-2.1-0.95-2.1-2.1
			S505.31,138.09,506.49,138.09z M506.49,165.05c-1.11,0-1.77-0.79-1.77-2.13v-15.43c0-1.38,0.65-2.13,1.77-2.13
			c1.08,0,1.74,0.75,1.74,2.13v15.43C508.23,164.26,507.57,165.05,506.49,165.05z"/>
		<path fill="#808285" d="M519.7,148.5c-2.85,0-4.55,2.49-4.55,6.68c0,4.19,1.7,6.68,4.55,6.68c1.21,0,2.29-0.43,2.88-1.11
			l0.92-1.11c0.49-0.59,0.85-0.79,1.41-0.79c0.92,0,1.7,0.75,1.7,1.64c0,0.39-0.13,0.82-0.49,1.34c-1.44,2.16-3.67,3.31-6.45,3.31
			c-2.69,0-4.59-0.88-6.06-2.88c-1.38-1.87-2.06-4.26-2.06-7.08c0-2.78,0.69-5.18,2.06-7.08c1.44-1.97,3.37-2.88,6.06-2.88
			c2.82,0,4.91,1.08,6.45,3.34c0.36,0.49,0.49,0.88,0.49,1.28c0,0.92-0.75,1.67-1.7,1.67c-0.56,0-0.92-0.2-1.41-0.79l-0.92-1.08
			C521.99,148.93,520.91,148.5,519.7,148.5z"/>
		<path fill="#808285" d="M554.46,149.78v-8.42c0-1.47,0.72-2.33,1.9-2.33c1.21,0,1.9,0.85,1.9,2.33v21.36
			c0,1.47-0.69,2.33-1.9,2.33c-1.18,0-1.9-0.85-1.9-2.33v-9.76h-11.01v9.76c0,1.47-0.69,2.33-1.87,2.33c-1.21,0-1.9-0.85-1.9-2.33
			v-21.36c0-1.47,0.69-2.33,1.9-2.33c1.18,0,1.87,0.85,1.87,2.33v8.42H554.46z"/>
		<path fill="#808285" d="M569.93,161.87c1.34,0,2.69-0.46,3.28-1.11l0.98-1.11c0.46-0.52,0.82-0.72,1.38-0.72
			c0.92,0,1.7,0.75,1.7,1.67c0,0.39-0.16,0.79-0.46,1.21c-1.64,2.26-3.87,3.34-6.88,3.34c-2.78,0-4.65-0.82-6.13-2.69
			c-1.47-1.83-2.23-4.36-2.23-7.27c0-6.09,3.31-9.96,8.58-9.96c4.88,0,7.76,3.44,7.76,9.3c0,1.51-0.72,2.16-2.29,2.16h-10.38
			C565.54,160.1,567.14,161.87,569.93,161.87z M574.12,153.65c-0.2-3.64-1.44-5.14-4.29-5.14c-2.88,0-4.39,1.7-4.59,5.14H574.12z"/>
		<path fill="#808285" d="M594.34,147.06c0.16-1.15,0.72-1.7,1.67-1.7c1.02,0,1.61,0.72,1.61,1.97v15.72c0,1.25-0.59,1.97-1.61,1.97
			c-0.95,0-1.47-0.56-1.67-1.7l-0.2-1.25c-1.61,2.1-3.38,3.08-5.54,3.08c-4.42,0-7.7-4.26-7.7-9.99c0-5.6,3.34-9.93,7.76-9.93
			c2.1,0,3.87,1.02,5.47,3.11L594.34,147.06z M589.19,148.5c-2.88,0-4.72,2.49-4.72,6.49c0,4.13,1.9,6.91,4.75,6.91
			c2.95,0.03,4.82-2.62,4.82-6.68C594.04,151.12,592.14,148.5,589.19,148.5z"/>
		<path fill="#808285" d="M604.27,165.05c-1.11,0-1.77-0.79-1.77-2.13v-22.6c0-1.34,0.65-2.13,1.77-2.13c1.08,0,1.74,0.79,1.74,2.13
			v22.6C606,164.26,605.35,165.05,604.27,165.05z"/>
		<path fill="#808285" d="M611.7,143.62c0-1.11,0.03-1.31,0.26-1.8c0.26-0.52,0.82-0.82,1.57-0.82c1.28,0,1.64,0.62,1.64,2.72v2.06
			h2.36c1.21,0,1.83,0.52,1.83,1.54c0,0.98-0.66,1.51-1.83,1.51h-2.36v10.16c0,1.67,0.03,1.8,0.1,2.16
			c0.16,0.59,0.56,0.82,1.41,0.82c0.1,0,0.2,0,0.29-0.03l0.75-0.23c0.23-0.07,0.46-0.1,0.69-0.1c0.88,0,1.44,0.62,1.44,1.51
			c0,1.28-1.44,2.03-3.87,2.03c-1.44,0-2.42-0.29-3.18-0.95c-0.92-0.79-1.11-1.6-1.11-4.78v-10.58h-1.08
			c-1.21,0-1.83-0.52-1.83-1.54c0-0.98,0.66-1.51,1.83-1.51h1.08V143.62z"/>
		<path fill="#808285" d="M631.69,145.23c1.87,0,3.57,0.88,4.29,2.19c0.52,0.98,0.72,2.06,0.72,4.36v11.14
			c0,1.34-0.66,2.13-1.74,2.13c-1.11,0-1.74-0.79-1.74-2.13v-9.83c0-2.42-0.03-2.88-0.36-3.54c-0.29-0.62-1.05-1.05-1.87-1.05
			c-1.38,0-2.72,0.69-5.14,2.29l-0.29,0.2v11.92c0,1.34-0.62,2.13-1.74,2.13c-1.11,0-1.74-0.79-1.74-2.13v-22.6
			c0-1.34,0.62-2.13,1.74-2.13c1.11,0,1.74,0.79,1.74,2.13v7.63C628.05,146.01,629.79,145.23,631.69,145.23z"/>
	</g>
</g>
</svg>
